<svg id="Layer_1" data-name="Layer 1" xmlns="http://www.w3.org/2000/svg" viewBox="0 0 185.62 185.7"><defs><style>.cls-1{fill:#c4ccce;}.cls-2{fill:#1a9ced;}.cls-3{fill:#fd8b25;}.cls-4{fill:#1b75bc;}.cls-5{fill:#ed6d0f;}</style></defs><title>yta-symbol</title><path class="cls-1" d="M95.35,96.85l45.4-45.4a3.38,3.38,0,0,0,0-4.9L95.35,1.05a3.38,3.38,0,0,0-4.9,0L45,46.55a3.38,3.38,0,0,0,0,4.9l45.4,45.4A3.5,3.5,0,0,0,95.35,96.85Z"/><path class="cls-2" d="M184.65,95.35l-89.3,89.3a3.38,3.38,0,0,1-4.9,0l-29.2-29.2a3.38,3.38,0,0,1,0-4.9l89.3-89.3a3.38,3.38,0,0,1,4.9,0l29.2,29.2A3.57,3.57,0,0,1,184.65,95.35Z"/><path class="cls-3" d="M80.55,111.55l-29.2,29.2a3.38,3.38,0,0,1-4.9,0L1.05,95.25a3.38,3.38,0,0,1,0-4.9l29.2-29.2a3.38,3.38,0,0,1,4.9,0l45.4,45.4A3.5,3.5,0,0,1,80.55,111.55Z"/><path class="cls-4" d="M140.75,103.05l-45.4,45.4a3.59,3.59,0,0,1-5-.1L77,134.85l50.3-50.3,13.5,13.6A3.38,3.38,0,0,1,140.75,103.05Z"/><path class="cls-5" d="M80.55,111.55l-13.5,13.5L45,103a3.38,3.38,0,0,1,0-4.9l13.6-13.5,22,22A3.5,3.5,0,0,1,80.55,111.55Z"/></svg>